<svg width="61" height="73" viewBox="0 0 61 73" fill="none" xmlns="http://www.w3.org/2000/svg">
<g clip-path="url(#clip0_154_49)">
<path d="M24.0203 36.5138C24.0203 29.8133 29.4032 24.3536 36.0703 24.3536C42.7102 24.3536 48.1204 29.7857 48.1204 36.5138C48.1204 43.2143 42.7375 48.674 36.0703 48.674C29.4305 48.674 24.0203 43.2143 24.0203 36.5138Z" fill="#1ABCFE"/>
<path d="M-0.0524902 60.8065C-0.0524902 54.106 5.33042 48.6464 11.9976 48.6464H24.0477V60.8065C24.0477 67.507 18.6647 72.9667 11.9976 72.9667C5.33042 72.9667 -0.0524902 67.5346 -0.0524902 60.8065Z" fill="#0ACF83"/>
<path d="M24.0203 0.0608993V24.3537H36.0703C42.7102 24.3537 48.1204 18.9216 48.1204 12.1935C48.1204 5.49299 42.7375 0.0333252 36.0703 0.0333252H24.0203V0.0608993Z" fill="#FF7262"/>
<path d="M-0.0524902 12.221C-0.0524902 18.9215 5.33042 24.3811 11.9976 24.3811H24.0477V0.060791H11.9976C5.33042 0.060791 -0.0524902 5.49288 -0.0524902 12.221Z" fill="#F24E1E"/>
<path d="M-0.0524902 36.5138C-0.0524902 43.2143 5.33042 48.674 11.9976 48.674H24.0477V24.3536H11.9976C5.33042 24.3536 -0.0524902 29.8133 -0.0524902 36.5138Z" fill="#A259FF"/>
</g>
<defs>
<clipPath id="clip0_154_49">
<rect width="61" height="73" fill="white"/>
</clipPath>
</defs>
</svg>
