<svg width="67" height="65" viewBox="0 0 67 65" fill="none" xmlns="http://www.w3.org/2000/svg">
<path d="M33.5001 0C15.0009 0 0 14.9188 0 33.3227C0 48.0458 9.59879 60.5365 22.9095 64.9428C24.5837 65.2512 25.1985 64.2199 25.1985 63.3397C25.1985 62.5452 25.1672 59.92 25.153 57.1356C15.833 59.1514 13.8664 53.204 13.8664 53.204C12.3425 49.3523 10.1469 48.3283 10.1469 48.3283C7.10753 46.26 10.376 46.3024 10.376 46.3024C13.74 46.5376 15.5114 49.7364 15.5114 49.7364C18.4992 54.8308 23.3483 53.3579 25.2599 52.5067C25.5605 50.3527 26.4289 48.8829 27.3868 48.0508C19.9461 47.2079 12.1239 44.3507 12.1239 31.5824C12.1239 27.9445 13.4326 24.9717 15.5758 22.6382C15.2279 21.7987 14.0813 18.4096 15.9002 13.8196C15.9002 13.8196 18.7134 12.924 25.1152 17.2354C27.7872 16.4968 30.6531 16.1268 33.5001 16.1142C36.3471 16.1268 39.2152 16.4968 41.8924 17.2354C48.2866 12.924 51.0958 13.8196 51.0958 13.8196C52.9192 18.4096 51.7721 21.7987 51.4242 22.6382C53.5721 24.9717 54.8719 27.9442 54.8719 31.5824C54.8719 44.381 47.035 47.1993 39.5754 48.0241C40.7769 49.0583 41.8475 51.0863 41.8475 54.195C41.8475 58.6535 41.8086 62.242 41.8086 63.3397C41.8086 64.2264 42.4116 65.2655 44.1099 64.9383C57.4133 60.5271 67 48.0408 67 33.3227C67 14.9188 52.0012 0 33.5001 0Z" fill="#A259FF"/>
<path d="M12.5469 47.469C12.4734 47.6345 12.2112 47.6841 11.9729 47.5707C11.7298 47.462 11.5932 47.2362 11.672 47.0699C11.7443 46.8995 12.0065 46.852 12.249 46.9665C12.4926 47.0749 12.6313 47.3028 12.5469 47.469ZM14.1948 48.9315C14.0351 49.0789 13.7227 49.0104 13.5107 48.7776C13.2915 48.5452 13.2506 48.2348 13.4127 48.085C13.5774 47.9379 13.8803 48.0066 14.1 48.2392C14.3191 48.4741 14.3617 48.7828 14.1946 48.9318M15.3254 50.8027C15.1199 50.9446 14.7841 50.8116 14.5768 50.5152C14.3716 50.2191 14.3716 49.8637 14.5813 49.7213C14.7894 49.5789 15.1199 49.7069 15.3301 50.0009C15.535 50.3023 15.535 50.6577 15.3251 50.803M17.237 52.9701C17.0534 53.1713 16.6624 53.1175 16.3761 52.8425C16.0834 52.5739 16.0017 52.1926 16.1858 51.9911C16.3716 51.7893 16.7649 51.846 17.0534 52.1186C17.3442 52.3867 17.4328 52.7709 17.237 52.9701ZM19.7078 53.7018C19.6272 53.9626 19.2504 54.0813 18.871 53.9705C18.4921 53.8563 18.2441 53.5505 18.3206 53.2868C18.3994 53.0242 18.7777 52.9005 19.16 53.0192C19.5384 53.1329 19.7866 53.4363 19.7078 53.7018ZM22.5201 54.012C22.5296 54.287 22.2077 54.5149 21.8094 54.5198C21.4088 54.5285 21.0848 54.3061 21.0806 54.0358C21.0806 53.7583 21.3951 53.5325 21.7955 53.5259C22.1938 53.5181 22.5201 53.7389 22.5201 54.012ZM25.2825 53.9067C25.3304 54.1749 25.0534 54.4503 24.658 54.5235C24.2692 54.5941 23.9092 54.4286 23.8596 54.1628C23.8112 53.8879 24.0934 53.6127 24.4815 53.5414C24.8777 53.4729 25.2321 53.6341 25.2825 53.9067Z" fill="#A259FF"/>
</svg>
