<svg width="74" height="72" viewBox="0 0 74 72" fill="none" xmlns="http://www.w3.org/2000/svg">
<path d="M13.1042 0H60.8958C68.1417 0 74 5.84615 74 13.0769V58.9231C74 66.1538 68.1417 72 60.8958 72H13.1042C5.85833 72 0 66.1538 0 58.9231V13.0769C0 5.84615 5.85833 0 13.1042 0Z" fill="#001E36"/>
<path d="M16.65 50.4923V18.8308C16.65 18.6154 16.7425 18.4923 16.9583 18.4923C17.4825 18.4923 17.9758 18.4923 18.685 18.4615C19.425 18.4308 20.1958 18.4308 21.0283 18.4C21.8608 18.3692 22.755 18.3692 23.7108 18.3385C24.6667 18.3077 25.5917 18.3077 26.5167 18.3077C29.045 18.3077 31.1417 18.6154 32.8683 19.2615C34.41 19.7846 35.8283 20.6462 37 21.7846C37.9867 22.7692 38.7575 23.9692 39.2508 25.2923C39.7133 26.5846 39.96 27.9077 39.96 29.2923C39.96 31.9385 39.3433 34.1231 38.11 35.8462C36.8767 37.5692 35.15 38.8615 33.1458 39.6C31.0492 40.3692 28.7367 40.6462 26.2083 40.6462C25.4683 40.6462 24.975 40.6462 24.6667 40.6154C24.3583 40.5846 23.9267 40.5846 23.3408 40.5846V50.4615C23.3717 50.6769 23.2175 50.8615 23.0017 50.8923H17.02C16.7733 50.8923 16.65 50.7692 16.65 50.4923ZM23.3717 24.4308V34.7692C23.8033 34.8 24.2042 34.8308 24.5742 34.8308H26.2083C27.4108 34.8308 28.6133 34.6462 29.7542 34.2769C30.7408 34 31.6042 33.4154 32.2825 32.6462C32.93 31.8769 33.2383 30.8308 33.2383 29.4769C33.2692 28.5231 33.0225 27.5692 32.5292 26.7385C32.005 25.9385 31.265 25.3231 30.3708 24.9846C29.23 24.5231 27.9967 24.3385 26.7325 24.3692C25.9308 24.3692 25.2217 24.3692 24.6358 24.4C24.0192 24.3692 23.5875 24.4 23.3717 24.4308ZM59.2 32.8923C58.275 32.4 57.2883 32.0615 56.24 31.8462C55.0992 31.6 53.9583 31.4462 52.7867 31.4462C52.17 31.4154 51.5225 31.5077 50.9367 31.6615C50.5358 31.7538 50.1967 31.9692 49.9808 32.2769C49.8267 32.5231 49.7342 32.8308 49.7342 33.1077C49.7342 33.3846 49.8575 33.6615 50.0425 33.9077C50.32 34.2462 50.69 34.5231 51.0908 34.7385C51.8 35.1077 52.54 35.4462 53.28 35.7538C54.945 36.3077 56.5483 37.0769 58.0283 38C59.0458 38.6462 59.8783 39.5077 60.4642 40.5538C60.9575 41.5385 61.2042 42.6154 61.1733 43.7231C61.2042 45.1692 60.7725 46.6154 59.9708 47.8154C59.1075 49.0462 57.905 50 56.5175 50.5538C55.0067 51.2 53.1567 51.5385 50.9367 51.5385C49.5183 51.5385 48.1308 51.4154 46.7433 51.1385C45.6642 50.9538 44.585 50.6154 43.5983 50.1538C43.3825 50.0308 43.2283 49.8154 43.2592 49.5692V44.2154C43.2592 44.1231 43.29 44 43.3825 43.9385C43.475 43.8769 43.5675 43.9077 43.66 43.9692C44.8625 44.6769 46.1267 45.1692 47.4833 45.4769C48.655 45.7846 49.8883 45.9385 51.1217 45.9385C52.2933 45.9385 53.1258 45.7846 53.6808 45.5077C54.1742 45.2923 54.5133 44.7692 54.5133 44.2154C54.5133 43.7846 54.2667 43.3846 53.7733 42.9846C53.28 42.5846 52.2625 42.1231 50.7517 41.5385C49.1792 40.9846 47.73 40.2462 46.3733 39.3231C45.4175 38.6462 44.6158 37.7538 44.03 36.7077C43.5367 35.7231 43.29 34.6462 43.3208 33.5692C43.3208 32.2462 43.6908 30.9846 44.3692 29.8462C45.14 28.6154 46.2808 27.6308 47.6067 27.0154C49.0558 26.2769 50.875 25.9385 53.0642 25.9385C54.3283 25.9385 55.6233 26.0308 56.8875 26.2154C57.8125 26.3385 58.7067 26.5846 59.5392 26.9231C59.6625 26.9538 59.7858 27.0769 59.8475 27.2C59.8783 27.3231 59.9092 27.4462 59.9092 27.5692V32.5846C59.9092 32.7077 59.8475 32.8308 59.755 32.8923C59.4775 32.9538 59.3233 32.9538 59.2 32.8923Z" fill="#31A8FF"/>
</svg>
